<?xml version="1.0" encoding="UTF-8" standalone="no"?>
<!-- Generator: Adobe Illustrator 23.1.0, SVG Export Plug-In . SVG Version: 6.00 Build 0)  -->

<svg
   xmlns:dc="http://purl.org/dc/elements/1.1/"
   xmlns:cc="http://creativecommons.org/ns#"
   xmlns:rdf="http://www.w3.org/1999/02/22-rdf-syntax-ns#"
   xmlns:svg="http://www.w3.org/2000/svg"
   xmlns="http://www.w3.org/2000/svg"
   xmlns:xlink="http://www.w3.org/1999/xlink"
   xmlns:sodipodi="http://sodipodi.sourceforge.net/DTD/sodipodi-0.dtd"
   xmlns:inkscape="http://www.inkscape.org/namespaces/inkscape"
   version="1.1"
   id="Layer_1"
   x="0px"
   y="0px"
   width="1000"
   height="587.53918"
   viewBox="0 0 1000 587.53918"
   enable-background="new 0 0 1000 591.053833"
   xml:space="preserve"
   sodipodi:docname="HBO_Comedy_2014_(Stacked).svg"
   inkscape:version="0.92.3 (2405546, 2018-03-11)"><metadata
   id="metadata28"><rdf:RDF><cc:Work
       rdf:about=""><dc:format>image/svg+xml</dc:format><dc:type
         rdf:resource="http://purl.org/dc/dcmitype/StillImage" /></cc:Work></rdf:RDF></metadata><defs
   id="defs26"><linearGradient
     inkscape:collect="always"
     xlink:href="#linearGradient117"
     id="linearGradient119"
     x1="385"
     y1="810.05383"
     x2="385"
     y2="774.05383"
     gradientUnits="userSpaceOnUse"
     gradientTransform="matrix(0.9966536,0,0,0.9966536,136.99405,-607.86849)" /><linearGradient
     inkscape:collect="always"
     id="linearGradient117"><stop
       style="stop-color:#43413f;stop-opacity:1"
       offset="0"
       id="stop113" /><stop
       style="stop-color:#000000;stop-opacity:1"
       offset="1"
       id="stop115" /></linearGradient></defs><sodipodi:namedview
   pagecolor="#ffffff"
   bordercolor="#666666"
   borderopacity="1"
   objecttolerance="10"
   gridtolerance="10"
   guidetolerance="10"
   inkscape:pageopacity="0"
   inkscape:pageshadow="2"
   inkscape:window-width="1366"
   inkscape:window-height="705"
   id="namedview24"
   showgrid="false"
   inkscape:zoom="0.70710678"
   inkscape:cx="634.74484"
   inkscape:cy="404.71872"
   inkscape:window-x="-8"
   inkscape:window-y="-8"
   inkscape:window-maximized="1"
   inkscape:current-layer="Layer_1" />

<linearGradient
   id="SVGID_1_"
   gradientUnits="userSpaceOnUse"
   x1="1940.4313"
   y1="-987.80884"
   x2="1940.4313"
   y2="-1107.1578"
   gradientTransform="matrix(0.3692113,0,0,-0.3692113,-217.27713,-206.13538)">
	<stop
   offset="0"
   style="stop-color:#000000"
   id="stop4" />
	<stop
   offset="1"
   style="stop-color:#000000;stop-opacity:0"
   id="stop6" />
</linearGradient>







<g
   id="g84"><path
     d="m 324.55645,348.27457 h -93.0499 V 215.3746 h -60.3948 V 348.27457 H 75.581046 L 75.258446,5.7226394 H 171.11215 V 133.13813 h 60.3948 V 5.7226394 h 93.0499 z m 426.34191,1.61279 C 846.85123,349.83756 924.93581,270.13745 924.90744,174.16488 924.88314,76.177079 846.84555,0.07080944 750.89836,5.943858e-5 655.07021,-0.07474056 606.08916,70.468949 594.00992,98.954899 594.10962,56.201739 551.97598,5.7564294 502.69768,5.6813694 H 343.91155 V 348.1484 l 148.03801,0.0498 c 59.70086,0 102.15525,-51.71137 102.23021,-96.05189 13.6225,27.91526 60.89184,97.76394 156.71859,97.73981 z M 479.54735,210.53565 c 13.69686,0 24.49123,13.52329 24.49123,28.93215 0,15.40847 -10.79358,28.95758 -24.49123,28.95758 h -47.0708 v -57.88973 z m 0.17344,-128.582271 c 13.69686,0 24.49143,13.5232 24.49143,28.932061 0,15.40847 -10.79377,28.93216 -24.49143,28.93216 H 432.65005 V 81.953379 Z m 62.67751,92.280861 c 10.79397,-1.36481 28.75814,-13.6968 35.11056,-21.58683 -2.23324,9.77628 -2.40688,38.0389 0.19936,47.79016 -7.22064,-11.1411 -24.34111,-24.83831 -35.30872,-26.20333 z m 121.38576,0 c 0,-48.13706 39.03177,-87.168821 87.16893,-87.168821 48.16248,0 87.19423,39.031761 87.19423,87.168821 0,48.13718 -39.03175,87.16883 -87.19423,87.16883 -48.13716,0 -87.16893,-39.03165 -87.16893,-87.16883 z m 87.16893,68.53449 c 37.86472,0 68.53444,-30.69374 68.53444,-68.53449 0,-37.84074 -30.66972,-68.53448 -68.53444,-68.53448 -37.8408,0 -68.53452,30.69374 -68.53452,68.53448 0,37.84075 30.69372,68.53449 68.53452,68.53449"
     id="path9-4"
     style="opacity:1;fill:url(#linearGradient119);fill-opacity:1;stroke-width:1.13606274"
     inkscape:connector-curvature="0" /><g
     transform="matrix(0.96190828,0,0,0.96190828,-864.48817,-245.70926)"
     id="text131"
     style="font-style:normal;font-variant:normal;font-weight:bold;font-stretch:normal;font-size:232.66667175px;line-height:1.25;font-family:Gotham;-inkscape-font-specification:'Gotham Bold';letter-spacing:0px;word-spacing:0px;opacity:1;fill:#f7981b;fill-opacity:1;stroke:none"
     aria-label="COMEDY"><path
       inkscape:connector-curvature="0"
       id="path133"
       style="font-size:232.66667175px;fill:#f7981b;fill-opacity:1"
       d="m 982.24937,866.24525 c 31.41003,0 50.02333,-11.168 66.77533,-29.08334 l -22.8013,-23.034 c -12.7967,11.63334 -24.1974,19.07867 -42.81069,19.07867 -27.92,0 -47.23134,-23.26667 -47.23134,-51.18667 v -0.46533 c 0,-27.92 19.77667,-50.72134 47.23134,-50.72134 16.28666,0 29.08329,6.98 41.64729,18.38067 l 22.8014,-26.29133 c -15.1234,-14.89067 -33.504,-25.128 -64.21603,-25.128 -50.02333,0 -84.92333,37.92466 -84.92333,84.22533 v 0.46534 c 0,46.766 35.598,83.76 83.52733,83.76 z" /><path
       inkscape:connector-curvature="0"
       id="path135"
       style="font-size:232.66667175px;fill:#f7981b;fill-opacity:1"
       d="m 1152.0048,866.24525 c 50.256,0 86.7847,-37.92467 86.7847,-84.22534 v -0.46533 c 0,-46.30067 -36.0634,-83.76 -86.3194,-83.76 -50.256,0 -86.7846,37.92466 -86.7846,84.22533 v 0.46534 c 0,46.30066 36.0633,83.76 86.3193,83.76 z m 0.4653,-33.03867 c -28.8506,0 -49.3253,-23.26667 -49.3253,-51.18667 v -0.46533 c 0,-27.92 20.0093,-50.72134 48.86,-50.72134 28.8507,0 49.3253,23.26667 49.3253,51.18667 v 0.46534 c 0,27.92 -20.0093,50.72133 -48.86,50.72133 z" /><path
       inkscape:connector-curvature="0"
       id="path137"
       style="font-size:232.66667175px;fill:#f7981b;fill-opacity:1"
       d="m 1270.3139,863.45325 h 35.1327 V 757.82258 l 45.37,68.86933 h 0.9307 l 45.8353,-69.56733 v 106.32867 h 35.598 V 700.58658 h -38.6227 l -42.8106,68.86933 -42.8107,-68.86933 h -38.6227 z" /><path
       inkscape:connector-curvature="0"
       id="path139"
       style="font-size:232.66667175px;fill:#f7981b;fill-opacity:1"
       d="m 1472.0795,863.45325 h 124.0114 v -31.87534 h -88.4134 v -34.202 h 76.78 v -31.87533 h -76.78 v -33.03867 h 87.25 v -31.87533 h -122.848 z" /><path
       inkscape:connector-curvature="0"
       id="path141"
       style="font-size:232.66667175px;fill:#f7981b;fill-opacity:1"
       d="m 1627.428,863.45325 h 63.518 c 51.1867,0 86.552,-35.598 86.552,-81.43334 v -0.46533 c 0,-45.83534 -35.3653,-80.968 -86.552,-80.968 h -63.518 z m 35.8307,-32.34067 v -98.18534 h 27.6873 c 29.316,0 49.0927,20.242 49.0927,49.09267 v 0.46534 c 0,28.85066 -19.7767,48.62733 -49.0927,48.62733 z" /><path
       inkscape:connector-curvature="0"
       id="path143"
       style="font-size:232.66667175px;fill:#f7981b;fill-opacity:1"
       d="m 1839.9042,863.45325 h 35.8307 v -64.914 l 62.5873,-97.95267 h -40.7166 l -39.5534,65.37933 -38.8553,-65.37933 h -41.88 l 62.5873,98.65067 z" /></g></g></svg>